<?xml version="1.0" encoding="utf-8"?>
<!-- Generator: Adobe Illustrator 19.2.0, SVG Export Plug-In . SVG Version: 6.00 Build 0)  -->
<svg version="1.1" id="Layer_1" xmlns="http://www.w3.org/2000/svg" xmlns:xlink="http://www.w3.org/1999/xlink" x="0px" y="0px"
	 viewBox="0 0 20 20" style="enable-background:new 0 0 20 20;" xml:space="preserve">
<style type="text/css">
	.st0{fill:none;}
	.st1{fill:#FF8181;}
	.st2{fill:#FFB3B3;}
	.st3{fill:#FF1212;}
	.st4{fill:#C30E0E;}
</style>
<g>
	<polygon class="st0" points="17,10 12.5,2.5 8,10 12.5,17.5 	"/>
	<polygon class="st1" points="12.5,17.5 14,20 20,10 17,10 	"/>
	<polygon class="st2" points="17,10 20,10 14,0 12.5,2.5 	"/>
	<path class="st2" d="M11,0L11,0L11,0z"/>
	<polygon class="st3" points="8,10 5,10 11,20 14,20 12.5,17.5 	"/>
	<polygon class="st4" points="8,10 12.5,2.5 14,0 14,0 14,0 11,0 11,0 11,0 11,0 3,0 0,0 0,3 0,20 3,20 3,3 9.2,3 5,10 	"/>
</g>
</svg>
